<svg width="367" height="419" viewBox="0 0 367 419" fill="none" xmlns="http://www.w3.org/2000/svg">
<path d="M247.919 82.6396C231.574 66.295 210.75 55.1642 188.079 50.6548C165.409 46.1453 141.91 48.4597 120.555 57.3054C99.1998 66.151 80.9472 81.1305 68.1053 100.35C55.2635 119.569 48.4092 142.164 48.4092 165.279C48.4092 188.394 55.2635 210.99 68.1053 230.209C80.9472 249.428 99.1998 264.407 120.555 273.253C141.91 282.099 165.409 284.413 188.079 279.904C210.75 275.394 231.574 264.263 247.919 247.919L216.133 216.133C206.075 226.191 193.26 233.04 179.31 235.815C165.359 238.59 150.899 237.166 137.758 231.722C124.616 226.279 113.384 217.061 105.482 205.235C97.5794 193.408 93.3615 179.503 93.3615 165.279C93.3615 151.055 97.5794 137.151 105.482 125.324C113.384 113.497 124.616 104.279 137.758 98.8359C150.899 93.3927 165.359 91.9684 179.31 94.7434C193.26 97.5184 206.075 104.368 216.133 114.426L247.919 82.6396Z" fill="#004B51"/>
<path d="M118.64 335.919C134.984 352.263 155.808 363.394 178.479 367.904C201.15 372.413 224.648 370.099 246.003 361.253C267.359 352.407 285.611 337.428 298.453 318.209C311.295 298.99 318.149 276.394 318.149 253.279C318.149 230.165 311.295 207.569 298.453 188.35C285.611 169.131 267.359 154.151 246.003 145.305C224.648 136.46 201.15 134.145 178.479 138.655C155.808 143.164 134.984 154.295 118.64 170.64L150.426 202.426C160.484 192.368 173.298 185.518 187.249 182.743C201.199 179.968 215.66 181.393 228.801 186.836C241.942 192.279 253.174 201.497 261.077 213.324C268.979 225.151 273.197 239.055 273.197 253.279C273.197 267.503 268.979 281.408 261.077 293.235C253.174 305.061 241.942 314.279 228.801 319.723C215.66 325.166 201.199 326.59 187.249 323.815C173.298 321.04 160.484 314.191 150.426 304.133L118.64 335.919Z" fill="#FF6913"/>
</svg>
