<svg xmlns="http://www.w3.org/2000/svg" x="0px" y="0px"
width="96" height="96"
viewBox="0 0 172 172"
style=" fill:#000000;"><g fill="none" fill-rule="nonzero" stroke="none" stroke-width="1" stroke-linecap="butt" stroke-linejoin="miter" stroke-miterlimit="10" stroke-dasharray="" stroke-dashoffset="0" font-family="none" font-weight="none" font-size="none" text-anchor="none" style="mix-blend-mode: normal"><path d="M0,172v-172h172v172z" fill="none"></path><g fill="#ffffff"><path d="M41.20833,21.5c-10.86467,0 -19.70833,8.84367 -19.70833,19.70833v89.58333c0,3.60125 0.98558,6.9725 2.6805,9.88216l51.74137,-50.60758c5.64733,-5.47175 14.50875,-5.4755 20.16325,0.007l23.31966,22.82275l20.08626,-20.08626c3.0745,-3.0745 6.87037,-5.15603 11.00195,-6.13786v-45.46354c0.00358,-10.86467 -8.83667,-19.70833 -19.70134,-19.70833zM109.29167,50.16667c6.92658,0 12.54167,5.61508 12.54167,12.54167c0,6.92658 -5.61508,12.54167 -12.54167,12.54167c-6.92658,0 -12.54167,-5.61508 -12.54167,-12.54167c0,-6.92658 5.61508,-12.54167 12.54167,-12.54167zM155.92399,93.17366c-4.11635,0.0009 -8.22885,1.56609 -11.35889,4.69613l-43.06299,43.05599c-1.11442,1.11083 -1.92156,2.49809 -2.35156,4.01026l-5.77393,20.21224c-0.53392,1.87408 -0.01842,3.89743 1.36474,5.27702c1.02125,1.02125 2.39204,1.57471 3.80029,1.57471c0.4945,0 0.98939,-0.07021 1.47672,-0.20996l20.21924,-5.77393c1.51933,-0.43358 2.90692,-1.25148 3.99626,-2.35156l43.05599,-43.05599c3.03508,-3.03508 4.71012,-7.07647 4.71012,-11.37288c0,-4.29642 -1.67504,-8.3308 -4.71012,-11.36589c-3.13362,-3.13363 -7.24953,-4.69702 -11.36589,-4.69613zM86,96.72901c-0.93794,-0.00045 -1.8761,0.35609 -2.60351,1.0638l-51.47543,50.36963c2.76633,1.48708 5.92969,2.33757 9.28727,2.33757h48.8929l2.1486,-7.5236c0.76683,-2.6875 2.21439,-5.15401 4.18522,-7.11768l15.36214,-15.35514l-23.19369,-22.70377c-0.731,-0.7095 -1.66558,-1.07035 -2.60351,-1.0708z"></path></g></g></svg>